<?xml version="1.0" encoding="UTF-8" standalone="no"?>
<!-- Created with Inkscape (http://www.inkscape.org/) -->

<svg
   width="35.082283mm"
   height="10.314603mm"
   viewBox="0 0 35.082283 10.314603"
   version="1.1"
   id="svg5"
   xmlns="http://www.w3.org/2000/svg"
   xmlns:svg="http://www.w3.org/2000/svg">
  <defs
     id="defs2" />
  <g
     id="layer1"
     transform="matrix(0.28379625,0,0,0.28379625,-1.6712115,14.452141)"
     style="fill:#000000">
    <path
       style="fill:#000000;stroke-width:0.169333"
       id="path960"
       d="" />
    <path
       style="fill:#000000;stroke-width:0.169333"
       id="path940"
       d="" />
    <path
       style="fill:#000000;stroke-width:0.169333"
       d="m 85.277375,-14.619439 c -1.230196,-0.224681 -1.185333,-0.183344 -1.185333,-1.09223 v -0.849275 l 0.889,0.132834 c 2.691569,0.402167 3.852333,-0.121458 3.852333,-1.737802 0,-0.684737 -0.03226,-0.696178 -0.658197,-0.233406 -1.497264,1.106975 -3.752223,0.241119 -4.398418,-1.688895 -0.264036,-0.788609 -0.242707,-2.956653 0.03562,-3.620838 0.777145,-1.854526 2.623214,-2.628806 5.498824,-2.30632 2.096584,0.235123 1.892837,-0.200878 1.892837,4.050503 0,2.038072 -0.08192,4.087552 -0.182036,4.554398 -0.402746,1.877933 -1.580449,2.724485 -3.915153,2.814271 -0.77338,0.02974 -1.596644,0.01929 -1.829478,-0.02324 z m 3.121644,-5.312315 c 0.434343,-0.165137 0.434356,-0.165207 0.434356,-2.286 v -2.120858 h -0.838699 c -1.508963,0 -2.005706,0.446959 -2.160182,1.943681 -0.211283,2.047122 0.886231,3.101262 2.564525,2.463177 z m -28.860313,-0.427524 v -5.672667 h 0.931334 c 0.630795,0 0.93217,0.0683 0.933926,0.211667 0.0073,0.594072 0.283303,0.660605 0.927364,0.223533 0.915902,-0.621548 2.122172,-0.636525 3.209585,-0.03985 1.700305,0.932972 2.143702,4.265997 0.833577,6.266004 -0.60547,0.924295 -1.944868,1.512548 -3.475858,1.526567 l -1.158594,0.01061 v 1.573403 1.573403 h -1.100667 -1.100667 z m 4.689559,0.353327 c 0.455549,-0.391847 0.475108,-0.471822 0.475108,-1.942629 0,-1.34461 -0.04501,-1.578969 -0.364647,-1.898604 -0.435449,-0.435449 -1.497078,-0.515762 -2.156022,-0.163107 -0.44059,0.235797 -0.442664,0.246693 -0.442664,2.32496 v 2.088053 h 1.006558 c 0.8199,0 1.09466,-0.07578 1.481667,-0.408673 z m 13.090443,2.117673 c -1.957323,-0.411025 -2.920218,-1.758588 -2.922162,-4.089544 -0.0023,-2.711062 1.344964,-4.10496 3.955215,-4.092245 1.667909,0.0081 2.720143,0.635713 3.470836,2.070122 0.463237,0.885146 0.434984,3.233718 -0.04991,4.148667 -0.4209,0.7942 -1.148092,1.522034 -1.744647,1.746187 -0.648111,0.243523 -2.048476,0.355588 -2.709332,0.216813 z m 1.855988,-1.874759 c 0.426757,-0.228393 0.684012,-1.057653 0.684012,-2.204908 0,-1.147255 -0.257255,-1.976514 -0.684012,-2.204908 -0.170348,-0.09117 -0.616565,-0.165759 -0.991592,-0.165759 -1.079119,0 -1.54173,0.711343 -1.54173,2.370667 0,1.659325 0.462611,2.370667 1.54173,2.370667 0.375027,0 0.821244,-0.07459 0.991592,-0.165759 z m 20.960074,1.786396 c -1.212492,-0.432666 -1.737814,-1.22693 -1.602935,-2.423568 0.156316,-1.386839 1.122292,-2.018044 3.399825,-2.221573 1.0506,-0.09389 1.21697,-0.154179 1.26025,-0.456754 0.0274,-0.191724 -0.11805,-0.56205 -0.32327,-0.822947 -0.3711,-0.471783 -0.38216,-0.473992 -2.03953,-0.407422 l -1.6664,0.06693 v -0.795435 -0.795433 l 0.7006,-0.118365 c 1.07043,-0.180848 3.09089,-0.141052 3.74158,0.0737 0.76778,0.253391 1.40964,0.956332 1.6371,1.792901 0.10129,0.372534 0.18459,1.915584 0.18511,3.429 l 9.4e-4,2.751667 h -0.9281 c -0.84876,0 -0.93719,-0.03619 -1.03436,-0.423333 -0.12906,-0.514201 -0.19741,-0.521318 -0.67725,-0.07053 -0.32628,0.306519 -1.33409,0.662009 -1.84762,0.65172 -0.0931,-0.0019 -0.4558,-0.105616 -0.80594,-0.230558 z m 2.79561,-1.687024 c 0.20927,-0.158857 0.29633,-0.461943 0.29633,-1.031582 v -0.806635 l -0.95946,0.07957 c -0.73241,0.06074 -1.03296,0.170323 -1.27,0.463061 -0.65363,0.807197 -0.21067,1.5346 0.92922,1.525925 0.38917,-0.003 0.84092,-0.106612 1.00391,-0.230335 z m 19.28245,1.758928 c -1.75338,-0.412622 -2.42136,-2.350056 -1.27851,-3.708253 0.51077,-0.607018 1.23912,-0.865612 2.84134,-1.008792 1.0506,-0.09389 1.21696,-0.154179 1.26024,-0.456754 0.0274,-0.191724 -0.11897,-0.563233 -0.32533,-0.825576 -0.37502,-0.476757 -0.376,-0.476946 -2.03953,-0.396841 l -1.66433,0.08014 v -0.806017 -0.806015 l 0.7006,-0.118365 c 1.07042,-0.180848 3.09089,-0.141052 3.74158,0.0737 0.73888,0.243852 1.4436,0.975238 1.65715,1.719863 0.0913,0.318342 0.166,1.855656 0.166,3.416254 v 2.837451 h -0.91298 c -0.83275,0 -0.92231,-0.03722 -1.01928,-0.423564 l -0.10631,-0.423561 -0.63171,0.40568 c -0.7374,0.473549 -1.58487,0.629869 -2.38893,0.440653 z m 2.53034,-1.698498 c 0.25631,-0.137172 0.32754,-0.358122 0.32754,-1.016 v -0.84071 h -0.66631 c -0.94253,0 -1.51385,0.260922 -1.7119,0.781821 -0.27155,0.714246 0.17367,1.250179 1.03857,1.250179 0.37651,0 0.83196,-0.07888 1.0121,-0.17529 z m -56.060463,-2.36471 v -4.064 h 0.935567 c 0.904052,0 0.938989,0.01711 1.037167,0.508 0.05588,0.2794 0.139165,0.508 0.185078,0.508 0.04591,0 0.343841,-0.2286 0.662059,-0.508 0.458098,-0.402216 0.736031,-0.508 1.334689,-0.508 h 0.756107 v 1.016 1.016 h -0.694075 c -0.381742,0 -0.953242,0.122982 -1.27,0.273294 l -0.575925,0.273294 v 2.774706 2.774706 h -1.185333 -1.185334 z m 24.384002,0 v -4.064 h 0.917878 c 0.882183,0 0.922219,0.01976 1.029456,0.508 0.06137,0.2794 0.152611,0.508 0.202766,0.508 0.05016,0 0.351553,-0.2286 0.669771,-0.508 0.458098,-0.402216 0.736031,-0.508 1.334689,-0.508 h 0.756107 v 1.016 1.016 h -0.694075 c -0.381742,0 -0.953242,0.122982 -1.27,0.273294 l -0.575925,0.273294 v 2.774706 2.774706 h -1.185333 -1.185334 z m 14.224001,0 v -4.064 h 0.93133 c 0.6308,0 0.93217,0.0683 0.93393,0.211667 0.007,0.594072 0.2833,0.660605 0.92736,0.223533 0.60512,-0.41064 1.13828,-0.520473 2.11804,-0.436333 0.53721,0.04613 1.30042,0.436601 1.40191,0.717237 0.0615,0.170034 0.16249,0.164242 0.48097,-0.02759 1.38255,-0.832768 2.59197,-0.970598 3.57136,-0.407008 1.04384,0.600688 1.22653,1.272837 1.29269,4.756159 l 0.0587,3.090333 h -1.20149 -1.20148 v -2.852422 c 0,-2.548327 -0.033,-2.882298 -0.30967,-3.132666 -0.38987,-0.35283 -1.19335,-0.360767 -1.68465,-0.01665 -0.36373,0.254762 -0.37635,0.359817 -0.37635,3.132667 v 2.869065 h -1.10067 -1.10066 v -2.756321 c 0,-2.220627 -0.0512,-2.829467 -0.2636,-3.132667 -0.34214,-0.488484 -1.22591,-0.500742 -1.83023,-0.02539 l -0.44617,0.350959 v 2.781709 2.78171 h -1.10065 -1.10067 z M 8.2077051,-18.545166 C 7.2053018,-19.065924 6.3313392,-20.16918 6.0275737,-21.297278 5.9114086,-21.728682 5.8675801,-26.329545 5.8982721,-34.870588 l 0.04643,-12.92069 0.4929776,-0.889734 c 0.2711378,-0.489353 0.7474178,-1.083804 1.0584003,-1.321001 1.2729398,-0.970919 0.2387753,-0.921932 19.463205,-0.921932 13.420433,0 17.892679,0.05 18.420441,0.20593 0.930121,0.274812 2.332904,1.677595 2.607716,2.607716 0.289974,0.981427 0.296276,26.224845 0.0068,27.191063 -0.261412,0.872517 -1.314391,2.051371 -2.226898,2.493109 -0.72461,0.350778 -0.834333,0.352849 -18.690091,0.352849 H 9.1160414 Z m 27.0630859,-5.484295 c 0.56858,-0.534156 0.54611,-1.629178 -0.04483,-2.184634 l -0.436743,-0.410517 -5.44759,-0.05121 c -2.996176,-0.02816 -5.703756,-0.0041 -6.016844,0.05356 -1.291547,0.237686 -1.834409,1.673381 -0.962444,2.545346 l 0.415636,0.415637 h 6.05045 c 5.979084,0 6.055074,-0.0043 6.442365,-0.368182 z m -18.990532,-3.467635 c 0.158356,-0.06077 1.612389,-1.700442 3.231182,-3.643722 2.662982,-3.196771 2.943262,-3.593856 2.943262,-4.169835 0,-0.350132 -0.130321,-0.825009 -0.289602,-1.05528 -0.730641,-1.056291 -5.670413,-6.914576 -5.907001,-7.005363 -1.253392,-0.480971 -2.651364,0.630838 -2.359485,1.8765 0.06145,0.262269 1.159467,1.732151 2.440029,3.266406 l 2.328296,2.789553 -2.336997,2.843847 c -1.285346,1.564115 -2.384831,3.034445 -2.443299,3.267399 -0.131741,0.524894 0.200674,1.364709 0.670406,1.693724 0.368463,0.258081 1.229074,0.326387 1.723209,0.136771 z m 61.461782,-1.683072 c -0.186266,-0.04526 -0.510117,-0.118881 -0.719667,-0.163596 -0.333381,-0.07114 -0.381,-0.186965 -0.381,-0.926741 v -0.845443 l 0.719667,0.128721 c 1.117483,0.199872 2.751698,0.14714 3.220827,-0.10393 0.516983,-0.276683 0.80084,-0.857064 0.80084,-1.637422 0,-0.687044 -0.03085,-0.697225 -0.673327,-0.222219 -0.280524,0.207401 -0.844379,0.396504 -1.31795,0.442007 -2.229463,0.214224 -3.638452,-1.879442 -3.240138,-4.814634 0.176435,-1.300162 0.824533,-2.207853 2.00316,-2.80552 0.807777,-0.409614 1.109465,-0.465666 2.506301,-0.465666 0.873392,0 1.926529,0.08525 2.340303,0.189434 l 0.752318,0.189437 v 3.696895 c 0,2.033294 -0.08192,4.078863 -0.182037,4.545708 -0.410765,1.915334 -1.5731,2.731735 -4.016715,2.821263 -0.810653,0.0297 -1.626315,0.01697 -1.812582,-0.02829 z m 3.313132,-5.324401 c 0.296932,-0.158912 0.327535,-0.372509 0.327535,-2.286 v -2.110709 h -0.928661 c -0.786813,0 -1.013132,0.07547 -1.481667,0.494109 -0.538993,0.48159 -0.553005,0.529159 -0.553005,1.877328 0,1.30564 0.02665,1.406141 0.475108,1.79189 0.514085,0.442197 1.559523,0.555117 2.16069,0.233382 z m 7.15614,2.040899 c -1.99087,-0.42311 -2.93205,-1.728587 -2.93205,-4.066941 0,-2.615781 1.311882,-4.064 3.681405,-4.064 2.223264,0 3.206128,1.051013 3.523363,3.767666 l 0.113701,0.973667 h -2.547691 -2.547692 l 0.155179,0.550333 c 0.08535,0.302684 0.310603,0.678448 0.500568,0.83503 0.446188,0.367782 1.873199,0.528676 3.003613,0.338655 l 0.889,-0.14944 v 0.803261 c 0,0.564019 -0.07699,0.832805 -0.258502,0.902457 -0.486722,0.186773 -2.873576,0.259634 -3.580894,0.109312 z m 2.146063,-5.08838 c 0,-0.66091 -0.471949,-1.503061 -0.902952,-1.611236 -0.989555,-0.248363 -1.666604,0.260433 -1.86963,1.405008 l -0.09762,0.550333 h 1.4351 c 1.329772,0 1.435101,-0.02526 1.435102,-0.344105 z m 15.494004,5.133756 c -0.85429,-0.206165 -1.47567,-0.641021 -1.78645,-1.250207 -0.27743,-0.543807 -0.33022,-1.00028 -0.33022,-2.855364 v -2.20808 h -0.67733 -0.67734 v -0.931333 -0.931333 h 0.65985 0.65984 l 0.20431,-1.439334 0.20432,-1.439333 h 0.91384 0.91384 v 1.439333 1.439334 h 1.10067 1.10067 v 0.931333 0.931333 h -1.10067 -1.10067 v 1.843908 c 0,2.277667 0.19709,2.643426 1.42438,2.643426 h 0.77696 v 0.866844 0.866844 l -0.635,0.104958 c -0.69768,0.11532 -1.13562,0.112048 -1.651,-0.01233 z m 18.28799,-0.06557 c -1.0254,-0.31498 -1.60866,-1.095712 -1.60866,-2.153295 0,-1.541182 1.06237,-2.354233 3.29698,-2.523236 l 1.27502,-0.09643 v -0.564322 c 0,-0.923226 -0.52164,-1.143276 -2.46876,-1.041429 l -1.61191,0.08431 0.0507,-0.774358 c 0.0618,-0.944231 0.20079,-1.00095 2.51245,-1.025108 1.35964,-0.01421 1.73463,0.04339 2.37067,0.364121 1.25225,0.631472 1.42033,1.166911 1.49116,4.750279 l 0.0596,3.014612 -0.99028,-0.05128 c -0.87959,-0.04555 -0.99632,-0.09386 -1.04438,-0.432279 -0.0669,-0.471013 -0.16242,-0.475232 -0.63828,-0.02819 -0.35296,0.331593 -1.36537,0.668949 -1.93228,0.643881 -0.1397,-0.0062 -0.4826,-0.08145 -0.762,-0.167278 z m 2.6358,-1.682035 c 0.25631,-0.137172 0.32754,-0.358121 0.32754,-1.016 v -0.840709 h -0.58165 c -0.67312,0 -1.47121,0.270333 -1.65598,0.560926 -0.19687,0.309609 -0.15638,1.041338 0.0702,1.267874 0.24936,0.24936 1.39371,0.266718 1.83993,0.02791 z m -66.874874,-1.899046 c 0.641624,-1.979083 1.436585,-4.455583 1.766577,-5.503333 l 0.599987,-1.905 1.726257,0.0034 1.726256,0.0034 1.693334,5.257876 c 0.931333,2.891832 1.718669,5.370413 1.749635,5.507959 0.04617,0.205067 -0.148771,0.241013 -1.082981,0.199694 l -1.139282,-0.05039 -0.441019,-1.481089 -0.44102,-1.481091 -2.071651,-5.08e-4 -2.07165,-5.08e-4 -0.456202,1.524 -0.456201,1.524 h -1.134317 -1.134315 l 1.166592,-3.598253 z m 5.522087,-1.439333 c -0.528694,-1.899265 -1.401347,-4.420989 -1.494907,-4.319861 -0.146096,0.15791 -1.340769,4.066347 -1.340769,4.386397 0,0.175729 0.343306,0.229797 1.459082,0.229797 1.308139,0 1.45055,-0.03066 1.376594,-0.296333 z m 4.953658,0.973667 v -4.064 h 0.935566 c 0.904052,0 0.938989,0.01711 1.037167,0.508 0.12416,0.620804 0.173209,0.624428 0.76592,0.05657 0.361278,-0.346125 0.689302,-0.469512 1.406266,-0.528968 l 0.935081,-0.07755 v 1.016617 1.016616 l -1.009655,0.07303 c -1.660681,0.120123 -1.699679,0.197686 -1.699679,3.380584 v 2.683088 h -1.185333 -1.185333 z m 23.537335,0 v -4.064 h 0.928108 c 0.848758,0 0.93719,0.03619 1.034357,0.423333 0.129486,0.515918 0.140635,0.516504 0.805395,0.04233 0.4424,-0.315563 0.757193,-0.381 1.832832,-0.381 1.150034,0 1.351207,0.04846 1.757492,0.423334 0.8234,0.759751 0.92315,1.253191 0.92315,4.566561 v 3.053438 h -1.08952 -1.089512 l -0.05348,-2.892653 c -0.04869,-2.633201 -0.08297,-2.914181 -0.382182,-3.132667 -0.41941,-0.306249 -0.967087,-0.304536 -1.708741,0.0054 l -0.587228,0.245356 v 2.887306 2.887307 h -1.185338 -1.185333 z m 15.578664,0 v -4.064 h 1.18534 1.18532 v 4.064 4.063999 h -1.18532 -1.18534 z m 4.23333,0 v -4.064 h 0.93134 c 0.63079,0 0.93216,0.0683 0.93392,0.211666 10e-4,0.116417 0.0686,0.315868 0.14929,0.443223 0.1186,0.187212 0.24921,0.155763 0.68199,-0.164207 0.75969,-0.561662 2.57621,-0.65342 3.34793,-0.169115 1.07961,0.677533 1.14641,0.928592 1.20748,4.538726 l 0.0553,3.267706 h -1.10222 -1.10222 l -0.0537,-2.776729 c -0.0473,-2.44752 -0.092,-2.818931 -0.3763,-3.132667 -0.38268,-0.422249 -1.09961,-0.461064 -1.8025,-0.09759 l -0.49959,0.258348 v 2.874318 2.874318 h -1.18533 -1.18534 z m -3.85479,-5.424855 c -0.71494,-0.287224 -0.83262,-1.210996 -0.24189,-1.898812 0.3235,-0.376657 1.50867,-0.395795 2.027,-0.03273 0.37927,0.265651 0.51781,1.125438 0.24676,1.531383 -0.34543,0.517335 -1.28138,0.701665 -2.03187,0.400161 z"
       id="path1564" />
  </g>
</svg>
